<?xml version="1.0" encoding="UTF-8" standalone="no"?>
<!DOCTYPE svg PUBLIC "-//W3C//DTD SVG 1.1//EN" "http://www.w3.org/Graphics/SVG/1.1/DTD/svg11.dtd">
<svg width="100%" height="100%" viewBox="0 0 684 684" version="1.1" xmlns="http://www.w3.org/2000/svg" xmlns:xlink="http://www.w3.org/1999/xlink" xml:space="preserve" xmlns:serif="http://www.serif.com/" style="fill-rule:evenodd;clip-rule:evenodd;stroke-linejoin:round;stroke-miterlimit:2;">
    <g transform="matrix(1,0,0,1,-30.4123,-184.546)">
        <g transform="matrix(0.848868,0,0,0.848868,327.768,435.5)">
            <rect x="-350.297" y="-295.633" width="804.919" height="804.919" style="fill:white;"/>
        </g>
        <g transform="matrix(3.54516,0,0,3.54516,-281.627,-717.786)">
            <path d="M110.86,420.71C110.86,413.771 113.317,402.23 115.556,398.648C119.38,392.532 129.409,384.265 137.589,380.486C142.138,378.385 145.86,376.229 145.86,375.696C145.86,375.162 145.036,373.921 144.029,372.937C142.831,371.768 141.785,368.358 141.006,363.088C139.995,356.253 140.047,354.369 141.344,350.693C142.445,347.571 142.619,345.438 141.966,343.071C141.467,341.263 141.316,339.526 141.631,339.21C141.946,338.895 142.349,334.437 142.525,329.304C142.939,317.258 148.5,300.456 154.862,292.029C159.105,286.409 169.035,279.271 175.93,276.885C180.238,275.394 185.51,275.275 186.359,276.649C186.699,277.199 189.116,277.649 191.73,277.649C195.05,277.649 197.066,278.221 198.421,279.547C202.844,283.88 211.86,295.842 211.86,297.378C211.86,297.731 212.703,298.948 213.734,300.084C216.503,303.135 220.86,311.431 220.86,313.653C220.86,314.717 221.772,317.338 222.888,319.478C224.552,322.67 224.722,323.881 223.834,326.215C223.239,327.78 222.859,330.206 222.99,331.605C223.121,333.004 222.199,336.133 220.941,338.559C218.905,342.487 218.732,343.797 219.362,350.52C219.752,354.673 220.471,359.126 220.961,360.415C221.875,362.819 219.837,368.341 217.475,369.858C216.042,370.779 219.18,373.189 223.86,374.762C225.785,375.409 228.433,376.773 229.745,377.793C231.056,378.813 232.655,379.648 233.298,379.648C233.941,379.648 236.8,380.811 239.652,382.232C246.175,385.482 252.265,392.296 253.645,397.888C255.499,405.399 256.774,412.971 257.352,419.898L257.915,447.036L110.855,447.258L110.855,420.71L110.86,420.71Z" style="fill:rgb(106,76,147);fill-rule:nonzero;"/>
        </g>
    </g>
</svg>
